<?xml version="1.0" encoding="UTF-8" standalone="no"?>
<svg
   width="32"
   height="32"
   version="1.1"
   viewBox="0 0 32 32"
   xml:space="preserve"
   id="svg4"
   sodipodi:docname="basemap-yandex.svg"
   inkscape:version="1.3.2 (091e20e, 2023-11-25)"
   xmlns:inkscape="http://www.inkscape.org/namespaces/inkscape"
   xmlns:sodipodi="http://sodipodi.sourceforge.net/DTD/sodipodi-0.dtd"
   xmlns="http://www.w3.org/2000/svg"
   xmlns:svg="http://www.w3.org/2000/svg"><defs
     id="defs4"><radialGradient
       id="SVGID_7_"
       cx="65.649902"
       cy="81.299797"
       r="81.832703"
       gradientUnits="userSpaceOnUse">
			<stop
   offset="0"
   style="stop-color:#79419d;stop-opacity:1"
   id="stop44" />
			<stop
   offset="1"
   style="stop-color:#592d92;stop-opacity:1"
   id="stop46" />
		</radialGradient><linearGradient
       id="B5r3ePYlwpc4tsqTZi2olc"
       x1="23.701"
       x2="41.063"
       y1="13.868"
       y2="34.421001"
       gradientUnits="userSpaceOnUse"
       gradientTransform="matrix(0.50952241,0,0,0.50952241,-0.30697615,2.6984047)"><stop
         offset="0"
         stop-color="#34bffe"
         id="stop9" /><stop
         offset="1"
         stop-color="#52dbd8"
         id="stop10" /></linearGradient><linearGradient
       id="B5r3ePYlwpc4tsqTZi2olb"
       x1="13.55"
       x2="43.040001"
       y1="42.355999"
       y2="27.547001"
       gradientUnits="userSpaceOnUse"
       gradientTransform="matrix(0.50952241,0,0,0.50952241,-0.30697615,2.6984047)"><stop
         offset="0"
         stop-color="#55d3fd"
         id="stop4" /><stop
         offset=".153"
         stop-color="#48b8f5"
         id="stop5" /><stop
         offset=".488"
         stop-color="#2f83e5"
         id="stop6" /><stop
         offset=".74"
         stop-color="#2062dc"
         id="stop7" /><stop
         offset=".877"
         stop-color="#1a55d8"
         id="stop8" /></linearGradient><linearGradient
       id="B5r3ePYlwpc4tsqTZi2ola"
       x1="13.696"
       x2="21.1"
       y1="0.21799999"
       y2="49.493999"
       gradientUnits="userSpaceOnUse"
       gradientTransform="matrix(0.50952241,0,0,0.50952241,-0.30697615,2.6984047)"><stop
         offset="0"
         stop-color="#3cbdf5"
         id="stop1" /><stop
         offset="1"
         stop-color="#1d49dd"
         id="stop2" /></linearGradient></defs><sodipodi:namedview
     id="namedview4"
     pagecolor="#ffffff"
     bordercolor="#000000"
     borderopacity="0.25"
     inkscape:showpageshadow="2"
     inkscape:pageopacity="0.0"
     inkscape:pagecheckerboard="0"
     inkscape:deskcolor="#d1d1d1"
     showguides="true"
     inkscape:zoom="6.0807377"
     inkscape:cx="-10.278358"
     inkscape:cy="50.816203"
     inkscape:window-width="2528"
     inkscape:window-height="1359"
     inkscape:window-x="45"
     inkscape:window-y="25"
     inkscape:window-maximized="0"
     inkscape:current-layer="svg4" /><rect
     x="0.49230003"
     y="0.4923"
     width="31.02"
     height="31.02"
     ry="4.2579999"
     fill="#643893"
     stroke="#371a4a"
     stroke-width="0.9846"
     id="rect1"
     style="fill:#eeeeee;fill-opacity:1;stroke:#5d5d5d;stroke-opacity:1" /><style
     type="text/css"
     id="style1"> .st0{fill:#333333;} </style><g
     style="fill:none"
     id="g68"
     transform="matrix(1.3431959,0,0,1.3431959,5.2567336,4.8679384)"><path
       d="M 8,1 C 4.6862,1 2,3.6862 2,7 2,8.6563 2.6711,10.156 3.7565,11.2417 4.8422,12.328 7.4,13.9 7.55,15.55 7.57249,15.7974 7.7516,16 8,16 8.2484,16 8.42751,15.7974 8.45,15.55 8.6,13.9 11.1578,12.328 12.2435,11.2417 13.3289,10.156 14,8.6563 14,7 14,3.6862 11.3138,1 8,1 Z"
       fill="#ff4433"
       id="path1" /><path
       d="m 8.00002,9.10015 c 1.1598,0 2.09998,-0.94021 2.09998,-2.1 0,-1.1598 -0.94018,-2.1 -2.09998,-2.1 -1.15979,0 -2.1,0.9402 -2.1,2.1 0,1.15979 0.94021,2.1 2.1,2.1 z"
       fill="#ffffff"
       id="path2" /></g></svg>
