<?xml version="1.0" encoding="UTF-8" standalone="no"?>
<svg
   width="32"
   height="32"
   version="1.1"
   viewBox="0 0 32 32"
   xml:space="preserve"
   id="svg4"
   sodipodi:docname="basemap-openstreetmap.svg"
   inkscape:version="1.3.2 (091e20e, 2023-11-25)"
   xmlns:inkscape="http://www.inkscape.org/namespaces/inkscape"
   xmlns:sodipodi="http://sodipodi.sourceforge.net/DTD/sodipodi-0.dtd"
   xmlns="http://www.w3.org/2000/svg"
   xmlns:svg="http://www.w3.org/2000/svg"><defs
     id="defs4"><radialGradient
       id="SVGID_7_"
       cx="65.649902"
       cy="81.299797"
       r="81.832703"
       gradientUnits="userSpaceOnUse">
			<stop
   offset="0"
   style="stop-color:#79419d;stop-opacity:1"
   id="stop44" />
			<stop
   offset="1"
   style="stop-color:#592d92;stop-opacity:1"
   id="stop46" />
		</radialGradient><linearGradient
       id="B5r3ePYlwpc4tsqTZi2olc"
       x1="23.701"
       x2="41.063"
       y1="13.868"
       y2="34.421001"
       gradientUnits="userSpaceOnUse"
       gradientTransform="matrix(0.50952241,0,0,0.50952241,-0.30697615,2.6984047)"><stop
         offset="0"
         stop-color="#34bffe"
         id="stop9" /><stop
         offset="1"
         stop-color="#52dbd8"
         id="stop10" /></linearGradient><linearGradient
       id="B5r3ePYlwpc4tsqTZi2olb"
       x1="13.55"
       x2="43.040001"
       y1="42.355999"
       y2="27.547001"
       gradientUnits="userSpaceOnUse"
       gradientTransform="matrix(0.50952241,0,0,0.50952241,-0.30697615,2.6984047)"><stop
         offset="0"
         stop-color="#55d3fd"
         id="stop4" /><stop
         offset=".153"
         stop-color="#48b8f5"
         id="stop5" /><stop
         offset=".488"
         stop-color="#2f83e5"
         id="stop6" /><stop
         offset=".74"
         stop-color="#2062dc"
         id="stop7" /><stop
         offset=".877"
         stop-color="#1a55d8"
         id="stop8" /></linearGradient><linearGradient
       id="B5r3ePYlwpc4tsqTZi2ola"
       x1="13.696"
       x2="21.1"
       y1="0.21799999"
       y2="49.493999"
       gradientUnits="userSpaceOnUse"
       gradientTransform="matrix(0.50952241,0,0,0.50952241,-0.30697615,2.6984047)"><stop
         offset="0"
         stop-color="#3cbdf5"
         id="stop1" /><stop
         offset="1"
         stop-color="#1d49dd"
         id="stop2" /></linearGradient></defs><sodipodi:namedview
     id="namedview4"
     pagecolor="#ffffff"
     bordercolor="#000000"
     borderopacity="0.25"
     inkscape:showpageshadow="2"
     inkscape:pageopacity="0.0"
     inkscape:pagecheckerboard="0"
     inkscape:deskcolor="#d1d1d1"
     showguides="true"
     inkscape:zoom="2.3047013"
     inkscape:cx="6.7253835"
     inkscape:cy="109.34172"
     inkscape:window-width="2528"
     inkscape:window-height="1359"
     inkscape:window-x="45"
     inkscape:window-y="25"
     inkscape:window-maximized="0"
     inkscape:current-layer="svg4" /><rect
     x="0.49230003"
     y="0.4923"
     width="31.02"
     height="31.02"
     ry="4.2579999"
     fill="#643893"
     stroke="#371a4a"
     stroke-width="0.9846"
     id="rect1"
     style="fill:#eeeeee;fill-opacity:1;stroke:#5d5d5d;stroke-opacity:1" /><g
     id="g52"
     transform="matrix(0.3913218,0,0,0.3913218,5.4605932,5.4479475)"><path
       style="display:inline;fill:#000000;fill-opacity:1"
       d="m 37.1875,0 c -5.246839,-0.14760586 -10.474844,2.12085 -13.96875,6.5 -3.24051,4.06157 -4.45492,9.40633 -3.3125,14.46875 0.40466,1.79319 1.29436,3.979 2.25,5.46875 l 0.5,0.75 -1.96875,1.96875 -1.875,1.875 4.0625,4.09375 1.90625,-1.90625 1.9375,-1.9375 L 27.5,31.75 c 3.00491,1.92756 6.92849,2.91984 10.46875,2.625 2.48466,-0.20693 4.31337,-0.72733 6.46875,-1.8125 1.81047,-0.91151 2.95256,-1.70601 4.375,-3.125 2.76105,-2.75438 4.38539,-6.04528 4.9375,-9.90625 0.15839,-1.10979 0.15948,-3.60433 0,-4.65625 C 52.99558,9.89899 50.35692,5.64561 46.28125,2.90625 43.496031,1.0342275 40.335603,0.08856352 37.1875,0 Z"
       id="path3832" /><path
       style="display:inline;fill:#75570f;fill-opacity:1"
       d="m 16.21875,30.46875 c -1.011199,0.04067 -1.578979,0.653741 -8.65625,7.75 -8.0088,8.03029 -7.5585,7.515 -7.5625,8.96875 -0.00395,1.30118 0.14951,1.56125 2.65625,4.0625 2.10689,2.10229 2.52323,2.42622 3.3125,2.625 0.57274,0.14425 1.51642,0.0274 2.125,-0.25 0.47514,-0.21658 1.42153,-1.11669 7.625,-7.3125 8.05541,-8.04546 7.72275,-7.63211 7.71875,-9.09375 C 23.4357,36.54228 23.39978,36.35798 23.125,35.8125 L 22.84375,35.25 22.8125,35.1875 18.71875,31.125 l -0.625,-0.34375 c -0.54548,-0.27478 -0.69854,-0.3105 -1.375,-0.3125 -0.18292,-4.76e-4 -0.355543,-0.0058 -0.5,0 z"
       id="path3835" /><path
       style="display:inline;fill:#c0c0c0;fill-opacity:1"
       d="m 39.271248,31.35302 c 4.47674,-0.81946 8.3862,-3.80005 10.34577,-7.88765 3.12421,-6.51701 1.02301,-14.17604 -4.99993,-18.22503 -1.43679,-0.9659 -3.44315,-1.78014 -5.32615,-2.16149 -1.3045,-0.2642 -4.06475,-0.23718 -5.42534,0.0531 -2.03097,0.4333 -3.89564,1.24134 -5.51151,2.38836 -0.99858,0.70884 -2.64513,2.35472 -3.34255,3.34118 -3.86467,5.46635 -3.51502,12.73157 0.85543,17.7747 2.24032,2.58513 5.33875,4.28207 8.76731,4.80164 1.13862,0.17255 3.46328,0.13003 4.63697,-0.0848 z"
       id="path3833" /><path
       style="display:inline;fill:#c6e0ad;fill-opacity:1"
       d="m 35.306878,29.4065 c -1.54456,-0.24456 -2.85403,-0.63675 -3.91548,-1.1727 l -0.60054,-0.30322 v -2.7851 -2.78509 h -1.05861 c -0.92057,0 -2.18157,0.18074 -3.09223,0.44323 -0.1208,0.0348 -0.17081,0.17477 -0.19217,0.53771 l -0.0289,0.49065 -0.45941,-0.8732 c -1.00738,-1.91476 -1.36622,-3.42212 -1.3662,-5.73896 10e-6,-1.79124 0.12725,-2.61596 0.62542,-4.05368 0.26443,-0.76317 0.9161,-2.11479 1.20113,-2.49125 0.12387,-0.16362 0.13737,-0.12771 0.14013,0.37275 l 0.003,0.5538 3.1468,-0.0253 3.1468,-0.0253 0.0279,-0.79271 0.0279,-0.7927 h -1.06082 -1.06083 V 8.23784 6.51026 l 0.37585,-0.19175 c 0.61978,-0.31619 1.77075,-0.75158 2.4228,-0.9165 0.33681,-0.0852 0.68246,-0.17537 0.7681,-0.2004 0.13464,-0.0394 0.14495,0.0101 0.0762,0.36538 -0.13259,0.68562 -0.0976,2.5672 0.0601,3.23647 0.31231,1.32496 1.08891,2.30563 2.14396,2.70735 0.62994,0.23986 1.81778,0.28529 2.51236,0.0961 0.66228,-0.18039 1.39696,-0.71216 1.77082,-1.28174 0.55294,-0.8424 0.74788,-1.5781 0.80139,-3.02448 l 0.0471,-1.2715 0.77672,0.40409 c 0.89466,0.46546 1.98242,1.25101 2.77751,2.00585 0.53486,0.50779 0.55249,0.54051 0.55249,1.02542 v 0.50089 h -1.05694 -1.05694 v 0.81672 0.81673 h 1.9506 1.95061 l 0.21007,0.43238 0.21006,0.43239 -1.07971,-0.002 c -0.74374,-0.002 -1.41607,0.065 -2.16067,0.21405 l -1.08096,0.21632 v 0.79485 c 0,0.43717 0.0169,0.79485 0.0375,0.79485 0.0206,0 0.45775,-0.0865 0.97143,-0.19217 0.51369,-0.1057 0.97245,-0.19217 1.01948,-0.19217 0.048,0 0.0855,1.26126 0.0855,2.87931 v 2.87931 l -1.03292,0.0273 -1.03292,0.0273 -0.0279,0.79095 -0.0279,0.79096 2.25639,0.0258 2.2564,0.0258 -0.16635,0.3769 -0.16635,0.37691 -1.1974,0.007 c -1.10688,0.007 -1.2385,0.0276 -1.74129,0.27453 -1.3125,0.64454 -2.0183,2.10655 -2.03988,4.22548 l -0.0105,1.0335 -0.64233,0.33767 c -0.56082,0.29483 -2.52229,1.00636 -2.77421,1.00636 -0.055,0 -0.0906,-1.33939 -0.0906,-3.41103 v -3.41103 h -1.04636 c -0.67328,0 -1.38416,0.0692 -1.99377,0.19415 -1.40887,0.28871 -1.28371,0.18523 -1.28371,1.06143 0,0.56154 0.0329,0.76221 0.12497,0.76221 0.0687,0 0.51193,-0.0855 0.98488,-0.19009 0.47294,-0.10455 0.89233,-0.19103 0.93196,-0.19217 0.0396,-0.001 0.0721,1.23021 0.0721,2.73635 v 2.73844 l -0.84075,-0.0131 c -0.46241,-0.007 -0.94884,-0.0302 -1.08096,-0.0511 z"
       id="path3831" /><path
       style="display:inline;fill:#c0c0c0;fill-opacity:1"
       d="m 30.909038,21.42091 c 0.98836,-0.4372 1.73763,-1.43852 2.04176,-2.72859 0.18257,-0.77443 0.18513,-2.52175 0.005,-3.3721 -0.28369,-1.33877 -1.07428,-2.35708 -2.15074,-2.77022 -0.76485,-0.29355 -2.05469,-0.29167 -2.82574,0.004 -1.07709,0.41318 -1.83547,1.42602 -2.13844,2.85595 -0.17789,0.83957 -0.17851,2.39265 -0.001,3.22892 0.29524,1.39327 1.17694,2.49092 2.29488,2.85696 0.78176,0.25597 2.10741,0.22012 2.77465,-0.075 z"
       id="path3829" /><path
       style="display:inline;fill:#c6e0ad;fill-opacity:1"
       d="m 28.685938,19.80691 c -0.39372,-0.33129 -0.57905,-0.98887 -0.64791,-2.29884 -0.0616,-1.17117 0.0717,-2.38219 0.31949,-2.90446 0.22671,-0.47776 0.64963,-0.71968 1.16619,-0.66709 0.82666,0.0842 1.14434,0.72961 1.23765,2.51461 0.0973,1.86079 -0.20969,3.2265 -0.78404,3.48819 -0.43294,0.19726 -0.96435,0.14277 -1.29138,-0.13241 z"
       id="path3827" /><path
       style="display:inline;fill:#c0c0c0;fill-opacity:1"
       d="m 39.275008,21.49463 c 1.67291,-0.51671 2.54432,-2.24692 2.44334,-4.85133 -0.0859,-2.21663 -0.87676,-3.58368 -2.39885,-4.14679 -0.63172,-0.23371 -2.0046,-0.20633 -2.68156,0.0535 -1.07105,0.41107 -1.83349,1.38664 -2.15547,2.75801 -0.22446,0.95602 -0.14534,3.12425 0.1434,3.92948 0.45053,1.25645 1.29758,2.08955 2.38503,2.34575 0.64728,0.1525 1.60482,0.11502 2.26411,-0.0886 z"
       id="path3825" /><path
       style="display:inline;fill:#c6e0ad;fill-opacity:1"
       d="m 37.409368,19.90991 c -0.55629,-0.30231 -0.81055,-1.47383 -0.72845,-3.35639 0.0625,-1.43315 0.16365,-1.86584 0.53269,-2.27888 0.52678,-0.58957 1.51536,-0.4222 1.86558,0.31584 0.38412,0.80947 0.44958,3.36036 0.11513,4.48655 -0.1895,0.63814 -0.58566,0.9787 -1.13236,0.97346 -0.22054,-0.002 -0.51421,-0.0654 -0.65259,-0.14058 z"
       id="path3823" /><path
       style="display:inline;fill:#c6e0ad;fill-opacity:1"
       d="m 27.903768,25.66018 c -0.81076,-0.84732 -1.11013,-1.26895 -0.93913,-1.32267 0.32146,-0.101 1.55452,-0.34135 1.58661,-0.30926 0.0198,0.0198 0.0237,0.54298 0.009,1.16267 l -0.0272,1.1267 -0.62909,-0.65744 z"
       id="path3821" /><path
       style="display:inline;fill:#c6e0ad;fill-opacity:1"
       d="m 45.353808,25.53121 c 0.0771,-0.66807 0.34281,-1.28654 0.63359,-1.47472 0.3181,-0.20586 0.71273,-0.28727 0.89583,-0.1848 0.13465,0.0754 0.0974,0.16571 -0.27065,0.65725 -0.23472,0.31343 -0.62768,0.78607 -0.87326,1.05031 l -0.44649,0.48043 0.061,-0.52847 z"
       id="path3819" /><path
       style="display:inline;fill:#c6e0ad;fill-opacity:1"
       d="m 48.095558,16.1869 0.009,-3.67527 0.28699,0.86477 c 0.56745,1.70982 0.76774,3.54564 0.56711,5.198 -0.15748,1.29698 -0.1536,1.28777 -0.54291,1.28777 h -0.32983 l 0.009,-3.67527 z"
       id="path3817" /><path
       style="display:inline;fill:#c6e0ad;fill-opacity:1"
       d="m 37.554138,10.06337 c -0.28705,-0.11598 -0.59357,-0.53639 -0.72863,-0.99934 -0.1313,-0.45005 -0.16707,-3.17797 -0.049,-3.73479 0.0711,-0.33529 0.10038,-0.36032 0.42149,-0.36032 0.68951,0 2.04064,0.22566 2.08786,0.3487 0.0259,0.0676 0.0759,0.54649 0.11097,1.06417 0.0733,1.08128 -0.081,2.59133 -0.31513,3.08479 -0.26899,0.56685 -0.94655,0.83156 -1.52759,0.59679 z"
       id="path3815" /><path
       style="display:inline;fill:#c6e0ad;fill-opacity:1"
       d="m 27.031258,9.79722 c 0.0498,-0.0925 0.41684,-0.51406 0.8156,-0.93684 l 0.72504,-0.76868 0.004,0.93683 0.004,0.93684 h -0.8201 c -0.7515,0 -0.81253,-0.0141 -0.72954,-0.16815 z"
       id="path3813" /><path
       style="display:inline;fill:#c6e0ad;fill-opacity:1"
       d="m 30.868318,47.93325 c -2.67902,-0.77406 -4.8967,-1.43431 -4.92819,-1.46724 -0.059,-0.0617 2.70974,-9.88097 2.81952,-9.99923 0.0547,-0.0589 9.53437,2.59585 9.92277,2.77886 0.1373,0.0647 -0.008,0.65019 -1.17839,4.73397 -0.73428,2.56308 -1.37936,4.82229 -1.43351,5.02046 -0.0542,0.19818 -0.15083,0.35588 -0.21485,0.35044 -0.064,-0.005 -2.30833,-0.6432 -4.98735,-1.41726 z"
       id="path3811" /><path
       style="display:inline;fill:#a5d383;fill-opacity:1"
       d="m 37.420758,49.10657 c 0,-0.11986 2.75458,-9.74106 2.79829,-9.77388 0.0997,-0.0749 9.71672,-2.75978 9.7535,-2.723 0.0435,0.0435 -2.68833,9.74811 -2.76007,9.80498 -0.049,0.0388 -9.28068,2.67317 -9.57553,2.73247 -0.1189,0.0239 -0.21619,0.006 -0.21619,-0.0406 z"
       id="path3809" /><path
       style="display:inline;fill:#a5d383;fill-opacity:1"
       d="m 21.441618,44.81075 c 1.90048,-1.91042 3.59414,-3.65477 3.76369,-3.87633 0.38223,-0.49952 0.91352,-1.64824 1.058,-2.28755 0.0597,-0.26424 0.11917,-0.7909 0.13212,-1.17036 l 0.0236,-0.68994 0.41112,-0.11603 c 0.22611,-0.0638 0.42844,-0.0987 0.44962,-0.0775 0.0527,0.0527 -2.71274,9.71086 -2.80487,9.79572 -0.0405,0.0373 -1.51704,0.47908 -3.28117,0.98168 l -3.2075,0.91382 3.45544,-3.47349 z"
       id="path3807" /><path
       style="display:inline;fill:#c6e0ad;fill-opacity:1"
       d="m 40.071328,37.9382 c -0.0196,-0.0327 -0.0797,-0.22045 -0.13356,-0.41711 l -0.0979,-0.35756 0.35181,-0.0595 c 3.01446,-0.51001 6.24294,-1.92535 8.78589,-3.85166 0.36329,-0.2752 0.56917,-0.37858 0.59589,-0.29922 0.12326,0.36614 0.61414,2.13552 0.59716,2.15249 -0.0764,0.0764 -10.07113,2.87963 -10.09933,2.83258 z"
       id="path3805" /><path
       style="display:inline;fill:#a5d383;fill-opacity:1"
       d="m 6.177708,35.02011 c -0.11626,-0.0943 -2.65277,-8.69681 -2.84416,-9.6459 -0.0383,-0.19002 0.33003,-0.0993 4.88567,1.20288 4.76674,1.36256 4.92934,1.41674 4.99565,1.66465 0.0591,0.22112 0.0205,0.28971 -0.28183,0.50033 -0.1927,0.13425 -1.73374,1.62875 -3.42454,3.32112 -1.69079,1.69237 -3.09859,3.07703 -3.12843,3.07703 -0.0298,0 -0.12091,-0.0541 -0.20236,-0.12011 z"
       id="path3803" /><path
       style="display:inline;fill:#c6e0ad;fill-opacity:1"
       d="m 8.018618,25.17385 c -2.66878,-0.76719 -4.86015,-1.40111 -4.86971,-1.40871 -0.0334,-0.0265 2.82853,-9.96454 2.88616,-10.02217 0.0502,-0.0502 9.94195,2.72123 10.04463,2.81422 0.0209,0.0189 -0.60418,2.2837 -1.389,5.03289 -1.29576,4.53899 -1.44501,4.99762 -1.62336,4.9886 -0.10802,-0.005 -2.37995,-0.63763 -5.04872,-1.40483 z"
       id="path3801" /><path
       style="display:inline;fill:#a5d383;fill-opacity:1"
       d="m 14.669178,26.38351 c 0.0273,-0.0722 0.47612,-1.62292 0.99727,-3.44614 l 0.94755,-3.31495 0.12352,0.72064 c 0.21402,1.2486 0.59353,2.67182 1.04343,3.91297 0.23915,0.65973 0.42128,1.21135 0.40474,1.22584 -0.0165,0.0145 -0.74349,0.22823 -1.61547,0.47499 -0.87198,0.24677 -1.66762,0.47323 -1.76809,0.50325 -0.1282,0.0383 -0.16785,0.0155 -0.13295,-0.0766 z"
       id="path3799" /><path
       style="display:inline;fill:#a5d383;fill-opacity:1"
       d="m 10.997258,13.73875 c -2.66877,-0.76771 -4.87539,-1.43168 -4.90361,-1.47549 -0.0917,-0.14236 -2.80125,-9.71 -2.76121,-9.75004 0.0563,-0.0563 9.68449,2.70676 9.77639,2.80557 0.10307,0.11082 2.87454,9.83845 2.79941,9.82573 -0.0323,-0.005 -2.2422,-0.63806 -4.91098,-1.40577 z"
       id="path3797" /><path
       style="display:inline;fill:#c6e0ad;fill-opacity:1"
       d="m 15.819768,9.88846 c -0.53799,-1.88636 -1.05972,-3.71433 -1.1594,-4.06217 l -0.18123,-0.63242 3.808,-1.08569 c 2.09439,-0.59713 3.87285,-1.10995 3.95212,-1.13961 0.0793,-0.0297 -0.18308,0.3111 -0.583,0.75725 -2.1267,2.37252 -3.52096,4.91483 -4.40282,8.02812 -0.16438,0.58035 -0.29888,1.14794 -0.29888,1.26132 0,0.65763 -0.25897,-0.056 -1.13479,-3.1268 z"
       id="path3940" /><path
       style="fill:#ffffff;fill-opacity:1"
       d="m 36.78125,2.84375 c -7.945415,0 -14.375,6.4295851 -14.375,14.375 0,7.945415 6.429585,14.375 14.375,14.375 7.945415,0 14.40625,-6.429585 14.40625,-14.375 v -0.125 c -0.07418,-7.8923149 -6.513587,-14.25 -14.40625,-14.25 z m 0,2.125 c 6.715203,0 12.186889,5.410093 12.25,12.125 v 0.125 c 0,6.760085 -5.489915,12.25 -12.25,12.25 -6.760085,0 -12.21875,-5.489915 -12.21875,-12.25 0,-6.760085 5.458665,-12.25 12.21875,-12.25 z"
       id="path3016" /></g></svg>
