<?xml version="1.0" encoding="UTF-8" standalone="no"?>
<svg
   width="32"
   height="32"
   version="1.1"
   viewBox="0 0 32 32"
   xml:space="preserve"
   id="svg4"
   sodipodi:docname="basemap-stamen.svg"
   inkscape:version="1.3.2 (091e20e, 2023-11-25)"
   xmlns:inkscape="http://www.inkscape.org/namespaces/inkscape"
   xmlns:sodipodi="http://sodipodi.sourceforge.net/DTD/sodipodi-0.dtd"
   xmlns="http://www.w3.org/2000/svg"
   xmlns:svg="http://www.w3.org/2000/svg"><defs
     id="defs4"><radialGradient
       id="SVGID_7_"
       cx="65.649902"
       cy="81.299797"
       r="81.832703"
       gradientUnits="userSpaceOnUse">
			<stop
   offset="0"
   style="stop-color:#79419d;stop-opacity:1"
   id="stop44" />
			<stop
   offset="1"
   style="stop-color:#592d92;stop-opacity:1"
   id="stop46" />
		</radialGradient><linearGradient
       id="B5r3ePYlwpc4tsqTZi2olc"
       x1="23.701"
       x2="41.063"
       y1="13.868"
       y2="34.421001"
       gradientUnits="userSpaceOnUse"
       gradientTransform="matrix(0.50952241,0,0,0.50952241,-0.30697615,2.6984047)"><stop
         offset="0"
         stop-color="#34bffe"
         id="stop9" /><stop
         offset="1"
         stop-color="#52dbd8"
         id="stop10" /></linearGradient><linearGradient
       id="B5r3ePYlwpc4tsqTZi2olb"
       x1="13.55"
       x2="43.040001"
       y1="42.355999"
       y2="27.547001"
       gradientUnits="userSpaceOnUse"
       gradientTransform="matrix(0.50952241,0,0,0.50952241,-0.30697615,2.6984047)"><stop
         offset="0"
         stop-color="#55d3fd"
         id="stop4" /><stop
         offset=".153"
         stop-color="#48b8f5"
         id="stop5" /><stop
         offset=".488"
         stop-color="#2f83e5"
         id="stop6" /><stop
         offset=".74"
         stop-color="#2062dc"
         id="stop7" /><stop
         offset=".877"
         stop-color="#1a55d8"
         id="stop8" /></linearGradient><linearGradient
       id="B5r3ePYlwpc4tsqTZi2ola"
       x1="13.696"
       x2="21.1"
       y1="0.21799999"
       y2="49.493999"
       gradientUnits="userSpaceOnUse"
       gradientTransform="matrix(0.50952241,0,0,0.50952241,-0.30697615,2.6984047)"><stop
         offset="0"
         stop-color="#3cbdf5"
         id="stop1" /><stop
         offset="1"
         stop-color="#1d49dd"
         id="stop2" /></linearGradient></defs><sodipodi:namedview
     id="namedview4"
     pagecolor="#ffffff"
     bordercolor="#000000"
     borderopacity="0.25"
     inkscape:showpageshadow="2"
     inkscape:pageopacity="0.0"
     inkscape:pagecheckerboard="0"
     inkscape:deskcolor="#d1d1d1"
     showguides="true"
     inkscape:zoom="11.47364"
     inkscape:cx="8.1491136"
     inkscape:cy="34.688206"
     inkscape:window-width="2528"
     inkscape:window-height="1359"
     inkscape:window-x="45"
     inkscape:window-y="25"
     inkscape:window-maximized="0"
     inkscape:current-layer="svg4" /><rect
     x="0.49230003"
     y="0.4923"
     width="31.02"
     height="31.02"
     ry="4.2579999"
     fill="#643893"
     stroke="#371a4a"
     stroke-width="0.9846"
     id="rect1"
     style="fill:#eeeeee;fill-opacity:1;stroke:#5d5d5d;stroke-opacity:1" /><style
     type="text/css"
     id="style1"> .st0{fill:#333333;} </style><g
     id="g6"
     transform="matrix(0.19654141,0,0,0.19654141,-1.3108124,-1.5267471)"
     style="fill:#5d5d5d;fill-opacity:1"><g
       id="g1"
       style="fill:#5d5d5d;fill-opacity:1"><path
         class="st0"
         d="M 89.244,97.036 C 93.28,78.502 100.503,71.799 104.66,62.567 l 0.043,-0.099 c 1.039,-2.2 1.533,-4.543 1.533,-7.141 0,-9.388 -7.621,-16.975 -17.044,-16.975 -9.423,0 -16.975,7.587 -16.975,16.975 0,2.598 0.554,5.023 1.594,7.223 4.122,9.25 11.328,15.936 15.381,34.469 z M 84.463,50.494 c 0,-2.631 2.133,-4.763 4.763,-4.763 2.631,0 4.763,2.133 4.763,4.763 0,2.631 -2.133,4.763 -4.763,4.763 -2.63,0 -4.763,-2.133 -4.763,-4.763 z"
         id="path1"
         style="fill:#5d5d5d;fill-opacity:1" /></g><g
       id="g2"
       style="fill:#5d5d5d;fill-opacity:1"><path
         class="st0"
         d="m 37.081,94.068 -13.488,10.967 c -3.591,2.92 -3.446,6.533 0.388,8.047 L 66.995,130.073 87.17,112.208 Z M 66.497,126.347 26.73,110.822 c -2.237,-0.873 -2.341,-2.974 -0.254,-4.68 l 10.858,-8.872 43.913,16.089 z"
         id="path2"
         style="fill:#5d5d5d;fill-opacity:1" /></g><g
       id="g3"
       style="fill:#5d5d5d;fill-opacity:1"><path
         class="st0"
         d="m 70.289,131.375 17.082,6.747 c 4.585,1.811 11.33,0.53 14.956,-2.846 l 13.59,-12.656 -25.449,-9.217 z"
         id="path3"
         style="fill:#5d5d5d;fill-opacity:1" /></g><g
       id="g4"
       style="fill:#5d5d5d;fill-opacity:1"><path
         class="st0"
         d="m 91.374,98.976 c -0.208,1.005 -1.109,1.732 -2.13,1.732 v -0.017 c -1.039,0 -1.905,-0.693 -2.148,-1.732 -1.148,-5.242 -2.552,-9.616 -4.07,-13.432 l -18.171,15.416 53.697,19.223 20.073,-18.694 -43.827,-14.337 c -1.274,3.432 -2.447,7.31 -3.424,11.841 z"
         id="path4"
         style="fill:#5d5d5d;fill-opacity:1" /></g><g
       id="g5"
       style="fill:#5d5d5d;fill-opacity:1"><path
         class="st0"
         d="M 150.796,79.922 108.039,67.22 c 0.427,-0.848 0.842,-1.702 1.228,-2.575 l 0.173,-0.346 c 1.264,-2.858 1.905,-5.855 1.905,-8.972 0,-12.194 -9.925,-22.119 -22.137,-22.119 -12.194,0 -22.102,9.925 -22.119,22.119 0,3.256 0.693,6.426 2.079,9.319 0.369,0.815 0.759,1.607 1.157,2.392 l -30.623,24.9 22.086,7.906 20.126,-16.985 c -1.885,-4.287 -3.888,-7.854 -5.765,-11.198 -1.136,-2.02 -2.23,-3.989 -3.236,-5.979 -0.376,-0.74 -0.751,-1.48 -1.094,-2.231 -1.161,-2.529 -1.767,-5.3 -1.767,-8.141 0,-10.566 8.574,-19.157 19.157,-19.157 10.601,0 19.227,8.591 19.227,19.175 0,2.737 -0.676,5.595 -1.819,8.124 -0.52,1.188 -1.102,2.354 -1.716,3.518 -0.817,1.551 -1.695,3.099 -2.615,4.692 -0.361,0.644 -0.728,1.299 -1.097,1.963 -0.027,0.049 -0.054,0.096 -0.081,0.145 l 10e-4,-10e-4 c -1.384,2.494 -2.804,5.161 -4.172,8.179 l -0.004,-10e-4 c -0.029,0.064 -0.057,0.133 -0.085,0.197 -0.067,0.15 -0.136,0.294 -0.203,0.446 l 0.008,0.003 c -0.279,0.629 -0.559,1.258 -0.833,1.921 l 45.29,14.646 12.311,-11.465 c 3.15,-2.935 1.941,-6.417 -2.625,-7.773 z m -0.874,6.702 -9.847,9.114 -40.302,-12.885 c 1.676,-3.654 3.424,-6.805 5.077,-9.755 0.67,-1.188 1.318,-2.348 1.947,-3.508 l 41.627,12.507 c 2.653,0.798 3.335,2.827 1.498,4.527 z"
         id="path5"
         style="fill:#5d5d5d;fill-opacity:1" /></g></g></svg>
