<?xml version="1.0" encoding="UTF-8" standalone="no"?>
<svg
   width="32"
   height="32"
   version="1.1"
   viewBox="0 0 32 32"
   xml:space="preserve"
   id="svg4"
   sodipodi:docname="basemap-google-gray.svg"
   inkscape:version="1.3.2 (091e20e, 2023-11-25)"
   xmlns:inkscape="http://www.inkscape.org/namespaces/inkscape"
   xmlns:sodipodi="http://sodipodi.sourceforge.net/DTD/sodipodi-0.dtd"
   xmlns="http://www.w3.org/2000/svg"
   xmlns:svg="http://www.w3.org/2000/svg"><defs
     id="defs4"><radialGradient
       id="SVGID_7_"
       cx="65.649902"
       cy="81.299797"
       r="81.832703"
       gradientUnits="userSpaceOnUse">
			<stop
   offset="0"
   style="stop-color:#79419d;stop-opacity:1"
   id="stop44" />
			<stop
   offset="1"
   style="stop-color:#592d92;stop-opacity:1"
   id="stop46" />
		</radialGradient><linearGradient
       id="B5r3ePYlwpc4tsqTZi2olc"
       x1="23.701"
       x2="41.063"
       y1="13.868"
       y2="34.421001"
       gradientUnits="userSpaceOnUse"
       gradientTransform="matrix(0.50952241,0,0,0.50952241,-0.30697615,2.6984047)"><stop
         offset="0"
         stop-color="#34bffe"
         id="stop9" /><stop
         offset="1"
         stop-color="#52dbd8"
         id="stop10" /></linearGradient><linearGradient
       id="B5r3ePYlwpc4tsqTZi2olb"
       x1="13.55"
       x2="43.040001"
       y1="42.355999"
       y2="27.547001"
       gradientUnits="userSpaceOnUse"
       gradientTransform="matrix(0.50952241,0,0,0.50952241,-0.30697615,2.6984047)"><stop
         offset="0"
         stop-color="#55d3fd"
         id="stop4" /><stop
         offset=".153"
         stop-color="#48b8f5"
         id="stop5" /><stop
         offset=".488"
         stop-color="#2f83e5"
         id="stop6" /><stop
         offset=".74"
         stop-color="#2062dc"
         id="stop7" /><stop
         offset=".877"
         stop-color="#1a55d8"
         id="stop8" /></linearGradient><linearGradient
       id="B5r3ePYlwpc4tsqTZi2ola"
       x1="13.696"
       x2="21.1"
       y1="0.21799999"
       y2="49.493999"
       gradientUnits="userSpaceOnUse"
       gradientTransform="matrix(0.50952241,0,0,0.50952241,-0.30697615,2.6984047)"><stop
         offset="0"
         stop-color="#3cbdf5"
         id="stop1" /><stop
         offset="1"
         stop-color="#1d49dd"
         id="stop2" /></linearGradient></defs><sodipodi:namedview
     id="namedview4"
     pagecolor="#ffffff"
     bordercolor="#000000"
     borderopacity="0.25"
     inkscape:showpageshadow="2"
     inkscape:pageopacity="0.0"
     inkscape:pagecheckerboard="0"
     inkscape:deskcolor="#d1d1d1"
     showguides="true"
     inkscape:zoom="4.7387524"
     inkscape:cx="18.886828"
     inkscape:cy="82.933222"
     inkscape:window-width="2528"
     inkscape:window-height="1359"
     inkscape:window-x="45"
     inkscape:window-y="25"
     inkscape:window-maximized="0"
     inkscape:current-layer="svg4" /><rect
     x="0.49230003"
     y="0.4923"
     width="31.02"
     height="31.02"
     ry="4.2579999"
     fill="#643893"
     stroke="#371a4a"
     stroke-width="0.9846"
     id="rect1"
     style="fill:#eeeeee;fill-opacity:1;stroke:#5d5d5d;stroke-opacity:1" /><g
     id="g93"
     transform="matrix(0.04240314,0,0,0.04240314,-5.20157,-5.600785)"
     style="fill:#5d5d5d;fill-opacity:1">
	<path
   d="M 534.292,253.396 C 523.188,251.208 511.74,250 500,250 c -49.062,0 -93.542,20.104 -125.625,52.5 l 72.083,58.25 z M 433.281,376.854 360.625,318.229 c -23.646,30 -37.708,67.917 -37.708,108.854 0,23.76 4.708,46.74 13.583,68.062 z m 41.802,-18.187 c 7.76,-2.844 16.104,-4.5 24.917,-4.5 40.312,0 72.917,32.604 72.917,72.917 0,3.521 -0.333,6.948 -0.812,10.333 l 80.958,-98.948 C 631.625,301.604 597.355,273.177 556.344,259.354 Z M 524.385,495.74 C 516.75,498.448 508.562,500 500,500 c -40.312,0 -72.917,-32.604 -72.917,-72.917 0,-3.688 0.354,-7.292 0.875,-10.823 l -81.281,99.344 c 4.021,6.938 8.427,13.698 13.427,20.125 3.854,5.208 9.062,11.875 15.104,19.688 13.198,17.01 30.823,39.75 47.813,64.208 z m -89.197,141.916 c 21.688,33.167 40.125,67.677 43.458,94.323 1.458,10.313 10.312,18.021 20.729,18.021 10.625,0 19.479,-7.812 20.729,-18.229 6.354,-50.312 68.438,-130 101.875,-172.917 5.833,-7.5 10.937,-14.062 15.625,-20.208 25.417,-31.458 39.479,-71.042 39.479,-111.562 0,-24.188 -4.906,-47.25 -13.74,-68.281 z"
   id="path92" />
</g></svg>
