<?xml version="1.0" encoding="UTF-8" standalone="no"?>
<svg
   width="32"
   height="32"
   version="1.1"
   viewBox="0 0 32 32"
   xml:space="preserve"
   id="svg4"
   sodipodi:docname="scale-bar.svg"
   inkscape:version="1.3.2 (091e20e, 2023-11-25)"
   xmlns:inkscape="http://www.inkscape.org/namespaces/inkscape"
   xmlns:sodipodi="http://sodipodi.sourceforge.net/DTD/sodipodi-0.dtd"
   xmlns="http://www.w3.org/2000/svg"
   xmlns:svg="http://www.w3.org/2000/svg"><defs
     id="defs4" /><sodipodi:namedview
     id="namedview4"
     pagecolor="#ffffff"
     bordercolor="#000000"
     borderopacity="0.25"
     inkscape:showpageshadow="2"
     inkscape:pageopacity="0.0"
     inkscape:pagecheckerboard="0"
     inkscape:deskcolor="#d1d1d1"
     showguides="true"
     inkscape:zoom="5.2661727"
     inkscape:cx="-8.8299421"
     inkscape:cy="16.330646"
     inkscape:window-width="2528"
     inkscape:window-height="1359"
     inkscape:window-x="45"
     inkscape:window-y="25"
     inkscape:window-maximized="0"
     inkscape:current-layer="svg4" /><rect
     x=".4923"
     y=".4923"
     width="31.02"
     height="31.02"
     ry="4.258"
     fill="#643893"
     stroke="#371a4a"
     stroke-width=".9846"
     id="rect1" /><g
     style="fill:#ffffff"
     id="g9"
     transform="matrix(0.025,0,0,0.025,4,28.0023)"><path
       d="m 172.31,-260 q -30.31,0 -51.31,-21 -21,-21 -21,-51.44 v -295.12 q 0,-30.44 21,-51.44 21,-21 51.31,-21 h 615.38 q 30.31,0 51.31,21 21,21 21,51.44 v 295.12 q 0,30.44 -21,51.44 -21,21 -51.31,21 z m 0,-60 h 615.38 q 4.62,0 8.46,-3.85 3.85,-3.84 3.85,-8.46 v -295.38 q 0,-4.62 -3.85,-8.46 -3.84,-3.85 -8.46,-3.85 H 670 v 114.61 q 0,12.75 -8.63,21.38 -8.63,8.62 -21.38,8.62 -12.76,0 -21.37,-8.62 -8.62,-8.63 -8.62,-21.38 V -640 H 510 v 114.61 q 0,12.75 -8.63,21.38 -8.63,8.62 -21.38,8.62 -12.76,0 -21.37,-8.62 -8.62,-8.63 -8.62,-21.38 V -640 H 350 v 114.61 q 0,12.75 -8.63,21.38 -8.63,8.62 -21.38,8.62 -12.76,0 -21.37,-8.62 -8.62,-8.63 -8.62,-21.38 V -640 H 172.31 q -4.62,0 -8.46,3.85 -3.85,3.84 -3.85,8.46 v 295.38 q 0,4.62 3.85,8.46 3.84,3.85 8.46,3.85 z M 320,-495.39 Z m 160,0 z m 160,0 z M 480,-480 Z"
       id="path1" /></g></svg>
