<?xml version="1.0" encoding="UTF-8" standalone="no"?>
<svg
   width="32"
   height="32"
   version="1.1"
   viewBox="0 0 32 32"
   xml:space="preserve"
   id="svg4"
   sodipodi:docname="uniques.svg"
   inkscape:version="1.3.2 (091e20e, 2023-11-25)"
   xmlns:inkscape="http://www.inkscape.org/namespaces/inkscape"
   xmlns:sodipodi="http://sodipodi.sourceforge.net/DTD/sodipodi-0.dtd"
   xmlns="http://www.w3.org/2000/svg"
   xmlns:svg="http://www.w3.org/2000/svg"><defs
     id="defs4"><radialGradient
       id="SVGID_7_"
       cx="65.649902"
       cy="81.299797"
       r="81.832703"
       gradientUnits="userSpaceOnUse">
			<stop
   offset="0"
   style="stop-color:#79419d;stop-opacity:1"
   id="stop44" />
			<stop
   offset="1"
   style="stop-color:#592d92;stop-opacity:1"
   id="stop46" />
		</radialGradient></defs><sodipodi:namedview
     id="namedview4"
     pagecolor="#ffffff"
     bordercolor="#000000"
     borderopacity="0.25"
     inkscape:showpageshadow="2"
     inkscape:pageopacity="0.0"
     inkscape:pagecheckerboard="0"
     inkscape:deskcolor="#d1d1d1"
     showguides="true"
     inkscape:zoom="17.284962"
     inkscape:cx="9.2855282"
     inkscape:cy="17.818957"
     inkscape:window-width="2528"
     inkscape:window-height="1359"
     inkscape:window-x="45"
     inkscape:window-y="25"
     inkscape:window-maximized="0"
     inkscape:current-layer="svg4" /><rect
     x=".4923"
     y=".4923"
     width="31.02"
     height="31.02"
     ry="4.258"
     fill="#643893"
     stroke="#371a4a"
     stroke-width=".9846"
     id="rect1" /><g
     style="fill:#ffffff"
     id="g9"
     transform="matrix(0.025,0,0,0.025,3.75,28)"><path
       d="m 270,-410 v 290 q 0,12.75 -8.63,21.37 -8.63,8.63 -21.38,8.63 -12.76,0 -21.37,-8.63 Q 210,-107.25 210,-120 v -720 q 0,-12.75 8.63,-21.37 8.63,-8.63 21.38,-8.63 12.76,0 21.37,8.63 8.62,8.62 8.62,21.37 v 50 h 502.15 q 19.08,0 29.73,15.77 10.66,15.77 3.43,33.85 l -56.08,140.38 56.08,140.38 q 7.23,18.08 -3.43,33.85 -10.65,15.77 -29.73,15.77 z m 0,-320 v 260 z m 230,200 q 29.15,0 49.58,-20.42 Q 570,-570.85 570,-600 570,-629.15 549.58,-649.58 529.15,-670 500,-670 q -29.15,0 -49.58,20.42 Q 430,-629.15 430,-600 q 0,29.15 20.42,49.58 Q 470.85,-530 500,-530 Z m -230,60 h 466.62 l -51.85,-130 51.85,-130 H 270 Z"
       id="path1" /></g></svg>
