<?xml version="1.0" encoding="UTF-8" standalone="no"?>
<svg
   width="32"
   height="32"
   version="1.1"
   viewBox="0 0 32 32"
   xml:space="preserve"
   id="svg4"
   sodipodi:docname="zaprange.svg"
   inkscape:version="1.3.2 (091e20e, 2023-11-25)"
   xmlns:inkscape="http://www.inkscape.org/namespaces/inkscape"
   xmlns:sodipodi="http://sodipodi.sourceforge.net/DTD/sodipodi-0.dtd"
   xmlns="http://www.w3.org/2000/svg"
   xmlns:svg="http://www.w3.org/2000/svg"><defs
     id="defs4"><radialGradient
       id="SVGID_7_"
       cx="65.649902"
       cy="81.299797"
       r="81.832703"
       gradientUnits="userSpaceOnUse">
			<stop
   offset="0"
   style="stop-color:#79419d;stop-opacity:1"
   id="stop44" />
			<stop
   offset="1"
   style="stop-color:#592d92;stop-opacity:1"
   id="stop46" />
		</radialGradient></defs><sodipodi:namedview
     id="namedview4"
     pagecolor="#ffffff"
     bordercolor="#000000"
     borderopacity="0.25"
     inkscape:showpageshadow="2"
     inkscape:pageopacity="0.0"
     inkscape:pagecheckerboard="0"
     inkscape:deskcolor="#d1d1d1"
     showguides="true"
     inkscape:zoom="17.284962"
     inkscape:cx="9.2855282"
     inkscape:cy="17.818957"
     inkscape:window-width="2528"
     inkscape:window-height="1359"
     inkscape:window-x="45"
     inkscape:window-y="25"
     inkscape:window-maximized="0"
     inkscape:current-layer="svg4" /><rect
     x=".4923"
     y=".4923"
     width="31.02"
     height="31.02"
     ry="4.258"
     fill="#643893"
     stroke="#371a4a"
     stroke-width=".9846"
     id="rect1" /><path
     d="m 214.54,-449.62 92.69,92.7 q 8.31,8.92 8.42,21.19 0.12,12.27 -8.8,21.19 -8.93,8.92 -20.7,8.92 -11.76,0 -20.69,-8.92 L 125.31,-454.31 q -5.62,-5.61 -7.92,-11.84 -2.31,-6.23 -2.31,-13.47 0,-7.23 2.31,-13.46 2.3,-6.23 7.92,-11.84 l 139.77,-139.77 q 8.92,-8.92 20.88,-8.92 11.96,0 20.89,8.92 9.3,8.92 9.11,21.38 -0.19,12.46 -9.11,21.39 L 214.92,-510 h 530.16 l -91.93,-91.92 q -8.3,-8.93 -8.8,-21.39 -0.5,-12.46 8.8,-21.38 8.93,-8.92 21.08,-8.73 12.15,0.19 21.08,9.11 l 139.38,139.39 q 5.62,5.61 7.92,11.84 2.31,6.23 2.31,13.46 0,7.24 -2.31,13.47 -2.3,6.23 -7.92,11.84 l -139.77,139.77 q -8.92,8.92 -20.69,8.92 -11.77,0 -21.08,-8.92 -9.3,-8.92 -9.3,-21.38 0,-12.46 9.3,-21.77 l 91.93,-91.93 z"
     id="path1"
     style="fill:#ffffff"
     transform="matrix(0.025,0,0,0.025,4.0023002,27.990375)" /></svg>
