<?xml version="1.0" encoding="UTF-8" standalone="no"?>
<svg
   width="32"
   height="32"
   version="1.1"
   viewBox="0 0 32 32"
   xml:space="preserve"
   id="svg4"
   sodipodi:docname="zoom-slider.svg"
   inkscape:version="1.3.2 (091e20e, 2023-11-25)"
   xmlns:inkscape="http://www.inkscape.org/namespaces/inkscape"
   xmlns:sodipodi="http://sodipodi.sourceforge.net/DTD/sodipodi-0.dtd"
   xmlns="http://www.w3.org/2000/svg"
   xmlns:svg="http://www.w3.org/2000/svg"><defs
     id="defs4"><radialGradient
       id="SVGID_7_"
       cx="65.649902"
       cy="81.299797"
       r="81.832703"
       gradientUnits="userSpaceOnUse">
			<stop
   offset="0"
   style="stop-color:#79419d;stop-opacity:1"
   id="stop44" />
			<stop
   offset="1"
   style="stop-color:#592d92;stop-opacity:1"
   id="stop46" />
		</radialGradient></defs><sodipodi:namedview
     id="namedview4"
     pagecolor="#ffffff"
     bordercolor="#000000"
     borderopacity="0.25"
     inkscape:showpageshadow="2"
     inkscape:pageopacity="0.0"
     inkscape:pagecheckerboard="0"
     inkscape:deskcolor="#d1d1d1"
     showguides="true"
     inkscape:zoom="9.8328533"
     inkscape:cx="45.307297"
     inkscape:cy="42.10375"
     inkscape:window-width="2528"
     inkscape:window-height="1359"
     inkscape:window-x="45"
     inkscape:window-y="25"
     inkscape:window-maximized="0"
     inkscape:current-layer="svg4" /><rect
     x=".4923"
     y=".4923"
     width="31.02"
     height="31.02"
     ry="4.258"
     fill="#643893"
     stroke="#371a4a"
     stroke-width=".9846"
     id="rect1" /><g
     style="fill:#ffffff"
     id="g9"
     transform="matrix(0.025,0,0,0.025,3.902,27.89713)"><path
       d="M 192.31,-585.85 84.92,-479.08 q -7.11,6.64 -16.59,7.05 -9.48,0.41 -16.94,-7.05 -7.47,-7.46 -7.47,-16.77 0,-9.3 7.47,-16.76 L 158.16,-620 H 76.15 q -10.33,0 -17.09,-6.75 -6.75,-6.75 -6.75,-17.08 0,-10.32 6.75,-17.09 6.76,-6.77 17.09,-6.77 h 127.7 q 15.36,0 25.76,10.39 10.39,10.4 10.39,25.76 v 127.69 q 0,10.34 -6.75,17.09 -6.75,6.76 -17.08,6.76 -10.32,0 -17.09,-6.76 -6.77,-6.75 -6.77,-17.09 z m 181.23,-181.84 h 82.61 q 10.34,0 17.09,6.75 6.76,6.75 6.76,17.08 0,10.32 -6.76,17.09 -6.75,6.77 -17.09,6.77 H 328.46 q -15.36,0 -25.76,-10.39 -10.39,-10.4 -10.39,-25.76 v -127.7 q 0,-10.33 6.75,-17.09 6.75,-6.75 17.08,-6.75 10.32,0 17.09,6.75 6.77,6.76 6.77,17.09 v 82.62 l 106.77,-107.38 q 7.08,-7.08 16.58,-7.27 9.5,-0.2 16.96,7.27 7.46,7.46 7.46,17.07 0,9.62 -7.46,17.08 z m 204.07,703.07 q -22.07,0 -41.96,-8.23 -19.88,-8.23 -35.73,-24.07 L 322.38,-274.69 q -10.07,-9.7 -9.24,-23.9 0.84,-14.21 10.86,-23.95 12.54,-12.15 29.04,-16.11 16.5,-3.97 32.88,0.5 l 88.69,23.23 v -329.7 q 0,-12.75 8.63,-21.37 8.63,-8.62 21.39,-8.62 12.75,0 21.37,8.62 8.61,8.62 8.61,21.37 v 361.93 q 0,18.07 -14.46,28.92 -14.46,10.84 -31.54,6.23 l -75.23,-20.69 129.31,128.92 q 6.54,6.54 15.8,10.62 9.25,4.07 19.12,4.07 h 157 q 37.62,0 63.81,-26.19 26.19,-26.19 26.19,-63.81 v -160 q 0,-12.75 8.63,-21.37 8.63,-8.63 21.39,-8.63 12.75,0 21.37,8.63 8.61,8.62 8.61,21.37 v 160 q 0,62.16 -43.92,106.08 -43.92,43.92 -106,43.92 z m 103.23,-177.3 z m -59.67,-282.7 q 12.75,0 21.37,8.63 8.61,8.62 8.61,21.37 v 130 q 0,12.75 -8.63,21.38 -8.63,8.62 -21.38,8.62 -12.76,0 -21.37,-8.62 -8.62,-8.63 -8.62,-21.38 v -130 q 0,-12.75 8.63,-21.37 8.63,-8.63 21.39,-8.63 z m 116.92,40 q 12.75,0 21.37,8.63 8.61,8.62 8.61,21.37 v 90 q 0,12.75 -8.62,21.38 -8.63,8.62 -21.39,8.62 -12.75,0 -21.37,-8.62 -8.61,-8.63 -8.61,-21.38 v -90 q 0,-12.75 8.62,-21.37 8.63,-8.63 21.39,-8.63 z"
       id="path1" /></g></svg>
