<?xml version="1.0" encoding="UTF-8"?>
<svg width="32" height="32" version="1.1" viewBox="0 0 32 32" xml:space="preserve" xmlns="http://www.w3.org/2000/svg"><rect x=".4923" y=".4923" width="31.02" height="31.02" ry="4.258" fill="#643893" stroke="#371a4a" stroke-width=".9846"/><path d="m11.37 20.75h1.5v-4.75h-1.5zm7.769 0h1.5v-9.75h-1.5zm-3.885 0h1.5v-2.75h-1.5zm0-4.75h1.5v-2h-1.5zm-5.942 8.5q-0.7578 0-1.283-0.525t-0.525-1.283v-13.38q0-0.7578 0.525-1.283t1.283-0.525h13.38q0.7578 0 1.283 0.525t0.525 1.283v13.38q0 0.7578-0.525 1.283t-1.283 0.525zm0-1.5h13.38q0.1155 0 0.2115-0.09625 0.09625-0.096 0.09625-0.2115v-13.38q0-0.1155-0.09625-0.2115-0.096-0.09625-0.2115-0.09625h-13.38q-0.1155 0-0.2115 0.09625-0.09625 0.096-0.09625 0.2115v13.38q0 0.1155 0.09625 0.2115 0.096 0.09625 0.2115 0.09625zm-0.3078-14v14z" fill="#fff" stroke-width=".025"/></svg>
