<?xml version="1.0" encoding="UTF-8" standalone="no"?>
<svg
   width="32"
   height="32"
   version="1.1"
   viewBox="0 0 32 32"
   xml:space="preserve"
   id="svg4"
   sodipodi:docname="basemap-kartverket.svg"
   inkscape:version="1.3.2 (091e20e, 2023-11-25)"
   xmlns:inkscape="http://www.inkscape.org/namespaces/inkscape"
   xmlns:sodipodi="http://sodipodi.sourceforge.net/DTD/sodipodi-0.dtd"
   xmlns="http://www.w3.org/2000/svg"
   xmlns:svg="http://www.w3.org/2000/svg"><defs
     id="defs4"><radialGradient
       id="SVGID_7_"
       cx="65.649902"
       cy="81.299797"
       r="81.832703"
       gradientUnits="userSpaceOnUse">
			<stop
   offset="0"
   style="stop-color:#79419d;stop-opacity:1"
   id="stop44" />
			<stop
   offset="1"
   style="stop-color:#592d92;stop-opacity:1"
   id="stop46" />
		</radialGradient><linearGradient
       id="B5r3ePYlwpc4tsqTZi2olc"
       x1="23.701"
       x2="41.063"
       y1="13.868"
       y2="34.421001"
       gradientUnits="userSpaceOnUse"
       gradientTransform="matrix(0.50952241,0,0,0.50952241,-0.30697615,2.6984047)"><stop
         offset="0"
         stop-color="#34bffe"
         id="stop9" /><stop
         offset="1"
         stop-color="#52dbd8"
         id="stop10" /></linearGradient><linearGradient
       id="B5r3ePYlwpc4tsqTZi2olb"
       x1="13.55"
       x2="43.040001"
       y1="42.355999"
       y2="27.547001"
       gradientUnits="userSpaceOnUse"
       gradientTransform="matrix(0.50952241,0,0,0.50952241,-0.30697615,2.6984047)"><stop
         offset="0"
         stop-color="#55d3fd"
         id="stop4" /><stop
         offset=".153"
         stop-color="#48b8f5"
         id="stop5" /><stop
         offset=".488"
         stop-color="#2f83e5"
         id="stop6" /><stop
         offset=".74"
         stop-color="#2062dc"
         id="stop7" /><stop
         offset=".877"
         stop-color="#1a55d8"
         id="stop8" /></linearGradient><linearGradient
       id="B5r3ePYlwpc4tsqTZi2ola"
       x1="13.696"
       x2="21.1"
       y1="0.21799999"
       y2="49.493999"
       gradientUnits="userSpaceOnUse"
       gradientTransform="matrix(0.50952241,0,0,0.50952241,-0.30697615,2.6984047)"><stop
         offset="0"
         stop-color="#3cbdf5"
         id="stop1" /><stop
         offset="1"
         stop-color="#1d49dd"
         id="stop2" /></linearGradient></defs><sodipodi:namedview
     id="namedview4"
     pagecolor="#ffffff"
     bordercolor="#000000"
     borderopacity="0.25"
     inkscape:showpageshadow="2"
     inkscape:pageopacity="0.0"
     inkscape:pagecheckerboard="0"
     inkscape:deskcolor="#d1d1d1"
     showguides="true"
     inkscape:zoom="4.6150226"
     inkscape:cx="19.393188"
     inkscape:cy="65.221783"
     inkscape:window-width="2528"
     inkscape:window-height="1359"
     inkscape:window-x="45"
     inkscape:window-y="25"
     inkscape:window-maximized="0"
     inkscape:current-layer="svg4" /><rect
     x="0.49230003"
     y="0.4923"
     width="31.02"
     height="31.02"
     ry="4.2579999"
     fill="#643893"
     stroke="#371a4a"
     stroke-width="0.9846"
     id="rect1"
     style="fill:#eeeeee;fill-opacity:1;stroke:#5d5d5d;stroke-opacity:1" /><g
     id="g52"
     transform="matrix(0.51680764,0,0,0.51680764,7.8341809,4.0839662)"><path
       fill="#00973d"
       transform="translate(-121.264,-36.669)"
       d="m 150.431,36.669 h -26.737 a 2.431,2.431 0 0 0 -2.43,2.431 v 16.4 c 2.1,-1.6 4.725,-3.829 9.462,-2.66 4.083,1.007 4.973,4.154 11.43,7.729 3.953,2.189 7.662,0.5 10.705,-1.268 V 39.1 a 2.431,2.431 0 0 0 -2.431,-2.431"
       id="path1" /><path
       fill="#00509c"
       transform="translate(-121.265,-109.837)"
       d="m 144.245,141.048 a 7.677,7.677 0 0 1 -3.386,-1.283 c -2.263,-1.4 -4.432,-3.68 -9.045,-6.075 -3.675,-1.786 -7.26,-0.424 -10.545,1.448 v 0 18.383 a 2.431,2.431 0 0 0 2.43,2.43 h 26.736 a 2.431,2.431 0 0 0 2.431,-2.43 v -14.986 c -2.854,1.636 -5.594,2.965 -8.618,2.513"
       id="path2" /><path
       fill="#ffffff"
       transform="translate(-121.264,-87.023)"
       d="m 142.156,110.918 c -6.458,-3.575 -7.348,-6.722 -11.43,-7.729 -4.737,-1.169 -7.364,1.063 -9.462,2.66 v 3.308 3.166 c 3.285,-1.872 6.919,-3.33 10.545,-1.448 4.614,2.395 6.783,4.678 9.045,6.075 a 8.661,8.661 0 0 0 3.386,1.283 c 3.025,0.452 5.765,-0.877 8.618,-2.513 l -0.007,-2.925 0.007,-3.145 c -3.043,1.768 -6.752,3.457 -10.705,1.268"
       id="path3" /></g></svg>
