<?xml version="1.0" encoding="UTF-8" standalone="no"?>
<svg
   width="32"
   height="32"
   version="1.1"
   viewBox="0 0 32 32"
   xml:space="preserve"
   id="svg4"
   sodipodi:docname="basemap-bing.svg"
   inkscape:version="1.3.2 (091e20e, 2023-11-25)"
   xmlns:inkscape="http://www.inkscape.org/namespaces/inkscape"
   xmlns:sodipodi="http://sodipodi.sourceforge.net/DTD/sodipodi-0.dtd"
   xmlns="http://www.w3.org/2000/svg"
   xmlns:svg="http://www.w3.org/2000/svg"><defs
     id="defs4"><radialGradient
       id="SVGID_7_"
       cx="65.649902"
       cy="81.299797"
       r="81.832703"
       gradientUnits="userSpaceOnUse">
			<stop
   offset="0"
   style="stop-color:#79419d;stop-opacity:1"
   id="stop44" />
			<stop
   offset="1"
   style="stop-color:#592d92;stop-opacity:1"
   id="stop46" />
		</radialGradient><linearGradient
       id="B5r3ePYlwpc4tsqTZi2olc"
       x1="23.701"
       x2="41.063"
       y1="13.868"
       y2="34.421001"
       gradientUnits="userSpaceOnUse"
       gradientTransform="matrix(0.50952241,0,0,0.50952241,-0.30697615,2.6984047)"><stop
         offset="0"
         stop-color="#34bffe"
         id="stop9" /><stop
         offset="1"
         stop-color="#52dbd8"
         id="stop10" /></linearGradient><linearGradient
       id="B5r3ePYlwpc4tsqTZi2olb"
       x1="13.55"
       x2="43.040001"
       y1="42.355999"
       y2="27.547001"
       gradientUnits="userSpaceOnUse"
       gradientTransform="matrix(0.50952241,0,0,0.50952241,-0.30697615,2.6984047)"><stop
         offset="0"
         stop-color="#55d3fd"
         id="stop4" /><stop
         offset=".153"
         stop-color="#48b8f5"
         id="stop5" /><stop
         offset=".488"
         stop-color="#2f83e5"
         id="stop6" /><stop
         offset=".74"
         stop-color="#2062dc"
         id="stop7" /><stop
         offset=".877"
         stop-color="#1a55d8"
         id="stop8" /></linearGradient><linearGradient
       id="B5r3ePYlwpc4tsqTZi2ola"
       x1="13.696"
       x2="21.1"
       y1="0.21799999"
       y2="49.493999"
       gradientUnits="userSpaceOnUse"
       gradientTransform="matrix(0.50952241,0,0,0.50952241,-0.30697615,2.6984047)"><stop
         offset="0"
         stop-color="#3cbdf5"
         id="stop1" /><stop
         offset="1"
         stop-color="#1d49dd"
         id="stop2" /></linearGradient></defs><sodipodi:namedview
     id="namedview4"
     pagecolor="#ffffff"
     bordercolor="#000000"
     borderopacity="0.25"
     inkscape:showpageshadow="2"
     inkscape:pageopacity="0.0"
     inkscape:pagecheckerboard="0"
     inkscape:deskcolor="#d1d1d1"
     showguides="true"
     inkscape:zoom="13.55689"
     inkscape:cx="4.7577282"
     inkscape:cy="25.743367"
     inkscape:window-width="2528"
     inkscape:window-height="1359"
     inkscape:window-x="45"
     inkscape:window-y="25"
     inkscape:window-maximized="1"
     inkscape:current-layer="svg4" /><rect
     x="0.49230003"
     y="0.4923"
     width="31.02"
     height="31.02"
     ry="4.2579999"
     fill="#643893"
     stroke="#371a4a"
     stroke-width="0.9846"
     id="rect1"
     style="fill:#eeeeee;fill-opacity:1;stroke:#5d5d5d;stroke-opacity:1" /><g
     id="g9"
     transform="translate(3.6927072,0.85564268)"
     inkscape:label="g9"><path
       fill="url(#B5r3ePYlwpc4tsqTZi2ola)"
       d="M 10.902517,25.11739 V 8.1008704 c 0,-0.8315406 -0.40558,-1.6106003 -1.0868114,-2.0870038 L 7.4107596,4.3304046 C 6.7351336,3.8575678 5.8072928,4.340595 5.8072928,5.1650023 V 19.851985 c 0,0.771927 0.2501754,1.522453 0.7133308,2.139994 l 1.12095,1.49443 c 0.769888,1.026688 1.977965,1.630981 3.2609434,1.630981 z"
       id="path2"
       style="fill:url(#B5r3ePYlwpc4tsqTZi2ola);stroke-width:0.509522" /><path
       d="m 10.902517,20.752311 c -0.07592,0.04382 -0.155404,0.08815 -0.242023,0.135024 -0.8065744,0.435132 -1.5504774,0.655755 -2.2113274,0.655755 -1.219797,0 -1.874024,-0.76836 -2.0992324,-1.09853 L 5.8072928,19.646648 v 0.205847 c 0,0.771927 0.2501754,1.522453 0.7133308,2.139994 l 1.12095,1.494429 c 0.769888,1.026179 1.977965,1.630472 3.2609434,1.630472 z"
       opacity="0.07"
       id="path3"
       style="stroke-width:0.509522" /><path
       d="m 7.6415736,23.486918 c 0.769888,1.026179 1.977965,1.630472 3.2609434,1.630472 v -4.073632 c -0.04025,0.02242 -0.07745,0.04382 -0.120756,0.06725 -0.8437704,0.455512 -1.6284344,0.686326 -2.3325944,0.686326 -1.341063,0 -2.0620377,-0.846316 -2.3096651,-1.210115 L 5.8302209,20.132218 c 0.052992,0.67155 0.2843136,1.317625 0.6909127,1.859756 z"
       opacity="0.05"
       id="path4"
       style="stroke-width:0.509522" /><path
       fill="url(#B5r3ePYlwpc4tsqTZi2olb)"
       d="M 19.564398,15.945987 11.41204,21.04121 c -0.175277,0.109548 -0.343928,0.204829 -0.509523,0.294505 -3.0770064,1.660024 -4.5637919,-0.0026 -4.9734482,-0.604803 0.1151515,0.452456 0.3082606,0.883511 0.5915548,1.261577 l 1.12095,1.494429 c 0.663398,0.884531 1.65289,1.453159 2.7351164,1.593786 0.04687,0.0051 1.080187,0.03669 1.080187,0.03669 0.969112,0 1.917842,-0.276161 2.735626,-0.796383 l 4.35285,-2.770274 c 1.988666,-2.599074 1.019045,-5.604746 1.019045,-5.604746 z"
       id="path8"
       style="fill:url(#B5r3ePYlwpc4tsqTZi2olb);stroke-width:0.509522" /><path
       fill="url(#B5r3ePYlwpc4tsqTZi2olc)"
       d="m 18.545353,21.550733 c 0,0 2.038089,-3.057134 -1.528567,-4.076179 l -2.212856,-0.88504 c -0.221133,-0.08866 -0.421375,-0.220623 -0.589518,-0.388766 v 0 C 14.04627,16.032605 13.914304,15.832363 13.825647,15.61123 l -1.639134,-4.098089 c -0.149799,-0.374498 0.01223,-0.801478 0.37348,-0.981849 v 0 c 0.236928,-0.118718 0.518694,-0.108019 0.745941,0.02853 l 4.030832,2.418193 c 0.564551,0.338832 1.057768,0.788231 1.421567,1.336987 0.282785,0.425961 0.590028,0.982359 0.806065,1.630472 0.509522,1.529076 0.509522,3.567165 -1.019045,5.605256 z"
       id="path10"
       style="fill:url(#B5r3ePYlwpc4tsqTZi2olc);stroke-width:0.509522" /><g
       id="g11"
       transform="matrix(0.50952241,0,0,0.50952241,-0.30697615,2.6984044)"><path
         d="m 34.133,29.042 -1.061,0.663 0.557,0.223 0.047,0.019 0.049,0.014 c 1.748,0.499 2.835,1.294 3.231,2.362 0.686,1.85 -0.775,4.102 -0.79,4.124 l -0.889,1.663 1.696,-1.093 c 0,0 3.969,-5.936 -2.84,-7.975 z"
         opacity="0.05"
         id="path11" /></g><g
       id="g12"
       transform="matrix(0.50952241,0,0,0.50952241,-0.30697615,2.6984044)"><path
         d="m 34.14,29.042 -0.536,0.335 0.218,0.087 0.024,0.01 0.025,0.007 c 1.912,0.546 3.111,1.446 3.564,2.673 0.773,2.094 -0.827,4.545 -0.843,4.569 l -0.401,0.8 0.804,-0.515 L 37.008,37 c 0,0 3.942,-5.919 -2.868,-7.958 z"
         opacity="0.07"
         id="path12" /></g></g></svg>
