<?xml version="1.0" encoding="UTF-8" standalone="no"?>
<svg
   width="32"
   height="32"
   version="1.1"
   viewBox="0 0 32 32"
   xml:space="preserve"
   id="svg4"
   sodipodi:docname="basemap-blank.svg"
   inkscape:version="1.3.2 (091e20e, 2023-11-25)"
   xmlns:inkscape="http://www.inkscape.org/namespaces/inkscape"
   xmlns:sodipodi="http://sodipodi.sourceforge.net/DTD/sodipodi-0.dtd"
   xmlns="http://www.w3.org/2000/svg"
   xmlns:svg="http://www.w3.org/2000/svg"><defs
     id="defs4"><radialGradient
       id="SVGID_7_"
       cx="65.649902"
       cy="81.299797"
       r="81.832703"
       gradientUnits="userSpaceOnUse">
			<stop
   offset="0"
   style="stop-color:#79419d;stop-opacity:1"
   id="stop44" />
			<stop
   offset="1"
   style="stop-color:#592d92;stop-opacity:1"
   id="stop46" />
		</radialGradient><linearGradient
       id="B5r3ePYlwpc4tsqTZi2olc"
       x1="23.701"
       x2="41.063"
       y1="13.868"
       y2="34.421001"
       gradientUnits="userSpaceOnUse"
       gradientTransform="matrix(0.50952241,0,0,0.50952241,-0.30697615,2.6984047)"><stop
         offset="0"
         stop-color="#34bffe"
         id="stop9" /><stop
         offset="1"
         stop-color="#52dbd8"
         id="stop10" /></linearGradient><linearGradient
       id="B5r3ePYlwpc4tsqTZi2olb"
       x1="13.55"
       x2="43.040001"
       y1="42.355999"
       y2="27.547001"
       gradientUnits="userSpaceOnUse"
       gradientTransform="matrix(0.50952241,0,0,0.50952241,-0.30697615,2.6984047)"><stop
         offset="0"
         stop-color="#55d3fd"
         id="stop4" /><stop
         offset=".153"
         stop-color="#48b8f5"
         id="stop5" /><stop
         offset=".488"
         stop-color="#2f83e5"
         id="stop6" /><stop
         offset=".74"
         stop-color="#2062dc"
         id="stop7" /><stop
         offset=".877"
         stop-color="#1a55d8"
         id="stop8" /></linearGradient><linearGradient
       id="B5r3ePYlwpc4tsqTZi2ola"
       x1="13.696"
       x2="21.1"
       y1="0.21799999"
       y2="49.493999"
       gradientUnits="userSpaceOnUse"
       gradientTransform="matrix(0.50952241,0,0,0.50952241,-0.30697615,2.6984047)"><stop
         offset="0"
         stop-color="#3cbdf5"
         id="stop1" /><stop
         offset="1"
         stop-color="#1d49dd"
         id="stop2" /></linearGradient></defs><sodipodi:namedview
     id="namedview4"
     pagecolor="#ffffff"
     bordercolor="#000000"
     borderopacity="0.25"
     inkscape:showpageshadow="2"
     inkscape:pageopacity="0.0"
     inkscape:pagecheckerboard="0"
     inkscape:deskcolor="#d1d1d1"
     showguides="true"
     inkscape:zoom="13.55689"
     inkscape:cx="4.7577282"
     inkscape:cy="25.743367"
     inkscape:window-width="2528"
     inkscape:window-height="1359"
     inkscape:window-x="45"
     inkscape:window-y="25"
     inkscape:window-maximized="1"
     inkscape:current-layer="svg4" /><rect
     x="0.49230003"
     y="0.4923"
     width="31.02"
     height="31.02"
     ry="4.2579999"
     fill="#643893"
     stroke="#371a4a"
     stroke-width="0.9846"
     id="rect1"
     style="fill:#eeeeee;fill-opacity:1;stroke:#5d5d5d;stroke-opacity:1" /><g
     style="fill:#5d5d5d;fill-opacity:1"
     id="g9"
     transform="matrix(0.02786905,0,0,0.02786905,2.6228569,29.377143)"><path
       d="M 576.69,-149.77 360,-225.54 188.97,-159.37 q -9.2,3.68 -17.79,2.32 -8.58,-1.36 -15.81,-5.89 -7.23,-4.53 -11.3,-12.24 -4.07,-7.7 -4.07,-17.67 v -523.94 q 0,-12.15 6.35,-21.48 6.34,-9.34 17.81,-13.57 l 172.15,-58.39 q 5.47,-2 11.39,-3 5.92,-1 12.3,-1 6.38,0 12.3,1 5.92,1 11.39,3 l 216.31,75.77 171.03,-66.17 q 9.2,-3.68 17.79,-2.32 8.58,1.36 15.81,5.89 7.23,4.53 11.3,12.24 4.07,7.7 4.07,17.67 v 525.66 q 0,12.18 -6.92,21.41 -6.93,9.23 -18.77,13.46 l -171,57.23 q -5.62,2 -11.38,2.81 -5.76,0.81 -11.96,0.81 -6.2,0 -11.93,-1 -5.73,-1 -11.35,-3 z M 570,-214.92 v -468 l -180,-62.93 v 468 z m 60,0 130,-43.08 v -474 l -130,49.08 z M 200,-228 330,-277.85 v -468 L 200,-702 Z m 430,-454.92 v 468 z m -300,-62.93 v 468 z"
       id="path1"
       style="fill:#5d5d5d;fill-opacity:1" /></g></svg>
