<?xml version="1.0" encoding="UTF-8" standalone="no"?>
<svg
   width="32"
   height="32"
   version="1.1"
   viewBox="0 0 32 32"
   xml:space="preserve"
   id="svg4"
   sodipodi:docname="score-cycle-times.svg"
   inkscape:version="1.3.2 (091e20e, 2023-11-25)"
   xmlns:inkscape="http://www.inkscape.org/namespaces/inkscape"
   xmlns:sodipodi="http://sodipodi.sourceforge.net/DTD/sodipodi-0.dtd"
   xmlns="http://www.w3.org/2000/svg"
   xmlns:svg="http://www.w3.org/2000/svg"><defs
     id="defs4" /><sodipodi:namedview
     id="namedview4"
     pagecolor="#ffffff"
     bordercolor="#000000"
     borderopacity="0.25"
     inkscape:showpageshadow="2"
     inkscape:pageopacity="0.0"
     inkscape:pagecheckerboard="0"
     inkscape:deskcolor="#d1d1d1"
     showguides="true"
     inkscape:zoom="5.2661727"
     inkscape:cx="-8.8299421"
     inkscape:cy="16.330646"
     inkscape:window-width="2528"
     inkscape:window-height="1359"
     inkscape:window-x="45"
     inkscape:window-y="25"
     inkscape:window-maximized="0"
     inkscape:current-layer="svg4" /><rect
     x=".4923"
     y=".4923"
     width="31.02"
     height="31.02"
     ry="4.258"
     fill="#643893"
     stroke="#371a4a"
     stroke-width=".9846"
     id="rect1" /><g
     style="fill:#ffffff"
     id="g9"
     transform="matrix(0.025,0,0,0.025,4,28.15)"><path
       d="m 397.69,-850 q -12.75,0 -21.37,-8.63 -8.63,-8.63 -8.63,-21.38 0,-12.76 8.63,-21.37 8.62,-8.62 21.37,-8.62 h 164.62 q 12.75,0 21.37,8.63 8.63,8.63 8.63,21.38 0,12.76 -8.63,21.37 -8.62,8.62 -21.37,8.62 z m 82.32,442.31 q 12.76,0 21.37,-8.63 8.62,-8.62 8.62,-21.37 v -164.62 q 0,-12.75 -8.63,-21.37 -8.63,-8.63 -21.38,-8.63 -12.76,0 -21.37,8.63 -8.62,8.62 -8.62,21.37 v 164.62 q 0,12.75 8.63,21.37 8.63,8.63 21.38,8.63 z M 480,-100 q -69.97,0 -131.91,-26.77 -61.94,-26.77 -108.24,-73.08 -46.31,-46.3 -73.08,-108.24 Q 140,-370.03 140,-440 q 0,-69.97 26.77,-131.91 26.77,-61.94 73.08,-108.24 46.3,-46.31 108.24,-73.08 Q 410.03,-780 480,-780 q 60.08,0 115.73,20.39 55.65,20.38 103.35,58.38 L 727.85,-730 q 8.3,-8.31 20.88,-8.5 12.58,-0.19 21.27,8.5 8.69,8.69 8.69,21.08 0,12.38 -8.69,21.07 l -28.77,28.77 q 38,47.7 58.38,103.35 20.39,55.65 20.39,115.73 0,69.97 -26.77,131.91 -26.77,61.94 -73.08,108.24 -46.3,46.31 -108.24,73.08 Q 549.97,-100 480,-100 Z m 0,-60 q 116,0 198,-82 82,-82 82,-198 0,-116 -82,-198 -82,-82 -198,-82 -116,0 -198,82 -82,82 -82,198 0,116 82,198 82,82 198,82 z m 0,-280 z"
       id="path1" /></g></svg>
