<?xml version="1.0" encoding="UTF-8" standalone="no"?>
<svg
   width="32"
   height="32"
   version="1.1"
   viewBox="0 0 32 32"
   xml:space="preserve"
   id="svg4"
   sodipodi:docname="scoreboard.svg"
   inkscape:version="1.3.2 (091e20e, 2023-11-25)"
   xmlns:inkscape="http://www.inkscape.org/namespaces/inkscape"
   xmlns:sodipodi="http://sodipodi.sourceforge.net/DTD/sodipodi-0.dtd"
   xmlns="http://www.w3.org/2000/svg"
   xmlns:svg="http://www.w3.org/2000/svg"><defs
     id="defs4" /><sodipodi:namedview
     id="namedview4"
     pagecolor="#ffffff"
     bordercolor="#000000"
     borderopacity="0.25"
     inkscape:showpageshadow="2"
     inkscape:pageopacity="0.0"
     inkscape:pagecheckerboard="0"
     inkscape:deskcolor="#d1d1d1"
     showguides="true"
     inkscape:zoom="5.2661727"
     inkscape:cx="-8.8299421"
     inkscape:cy="16.330646"
     inkscape:window-width="2528"
     inkscape:window-height="1359"
     inkscape:window-x="45"
     inkscape:window-y="25"
     inkscape:window-maximized="0"
     inkscape:current-layer="svg4" /><rect
     x=".4923"
     y=".4923"
     width="31.02"
     height="31.02"
     ry="4.258"
     fill="#643893"
     stroke="#371a4a"
     stroke-width=".9846"
     id="rect1" /><path
     d="m 19.2885,19.58275 q -0.35975,0 -0.603,-0.24325 -0.24325,-0.2435 -0.24325,-0.603 v -4 q 0,-0.3595 0.24325,-0.603 0.24325,-0.24325 0.603,-0.24325 h 2.5 q 0.3595,0 0.60275,0.24325 0.24325,0.2435 0.24325,0.603 v 4 q 0,0.3595 -0.24325,0.603 -0.24325,0.24325 -0.60275,0.24325 z m 0.346,-1.1925 h 1.80775 v -3.3075 H 19.6345 Z m -9.07675,0 h 2.40375 q 0.2585,0 0.42725,0.169 0.169,0.16875 0.169,0.42675 0,0.25825 -0.169,0.4275 -0.16875,0.16925 -0.42725,0.16925 h -2.75 q -0.3595,0 -0.60275,-0.24325 Q 9.3655,19.096 9.3655,18.7365 v -1.55775 q 0,-0.35775 0.26325,-0.621 0.2635,-0.2635 0.62125,-0.2635 h 2.1155 v -1.2115 h -2.404 q -0.25825,0 -0.42725,-0.169 Q 9.3655,14.745 9.3655,14.487 q 0,-0.25825 0.16875,-0.4275 0.169,-0.16925 0.42725,-0.16925 h 2.75 q 0.35975,0 0.603,0.24325 0.24325,0.2435 0.24325,0.603 v 1.55775 q 0,0.35775 -0.2635,0.621 -0.2635,0.2635 -0.62125,0.2635 h -2.11525 z m -2.26925,5.7405 q -0.75775,0 -1.28275,-0.525 -0.525,-0.525 -0.525,-1.28275 V 11.20775 Q 6.48075,10.45 7.00575,9.925 7.53075,9.4 8.2885,9.4 H 11.25 V 8.15 q 0,-0.31875 0.21575,-0.53425 Q 11.6815,7.4 12.00025,7.4 q 0.319,0 0.53425,0.21575 Q 12.75,7.83125 12.75,8.15 V 9.4 h 6.5 V 8.15 q 0,-0.31875 0.21575,-0.53425 Q 19.6815,7.4 20.00025,7.4 q 0.319,0 0.53425,0.21575 Q 20.75,7.83125 20.75,8.15 V 9.4 h 2.9615 q 0.75775,0 1.28275,0.525 0.525,0.525 0.525,1.28275 V 22.323 q 0,0.75775 -0.525,1.28275 -0.525,0.525 -1.28275,0.525 z m 0,-1.5 h 7.11525 v -0.7885 q 0,-0.25825 0.169,-0.42725 0.16875,-0.169 0.42675,-0.169 0.25825,0 0.4275,0.169 0.16925,0.169 0.16925,0.42725 v 0.7885 h 7.11525 q 0.1155,0 0.2115,-0.09625 0.09625,-0.096 0.09625,-0.2115 V 11.20775 q 0,-0.1155 -0.09625,-0.2115 Q 23.827,10.9 23.7115,10.9 h -7.11525 v 0.7885 q 0,0.25825 -0.169,0.42725 -0.16875,0.16875 -0.42675,0.16875 -0.25825,0 -0.4275,-0.16875 -0.16925,-0.169 -0.16925,-0.42725 V 10.9 H 8.2885 q -0.1155,0 -0.2115,0.09625 -0.09625,0.096 -0.09625,0.2115 V 22.323 q 0,0.1155 0.09625,0.2115 0.096,0.09625 0.2115,0.09625 z m -0.30775,0 V 10.9 Z m 8.01975,-6.9615 q -0.25825,0 -0.4275,-0.16875 -0.16925,-0.16875 -0.16925,-0.427 0,-0.25825 0.169,-0.42725 0.16875,-0.16925 0.42675,-0.16925 0.25825,0 0.4275,0.16875 0.16925,0.16875 0.16925,0.42675 0,0.25825 -0.169,0.4275 -0.16875,0.16925 -0.42675,0.16925 z m 0,3.3845 q -0.25825,0 -0.4275,-0.16875 -0.16925,-0.16875 -0.16925,-0.427 0,-0.258 0.169,-0.42725 0.16875,-0.16925 0.42675,-0.16925 0.25825,0 0.4275,0.16875 0.16925,0.16875 0.16925,0.427 0,0.258 -0.169,0.42725 -0.16875,0.16925 -0.42675,0.16925 z"
     id="path1"
     style="fill:#ffffff;stroke-width:0.025" /></svg>
