<?xml version="1.0" encoding="UTF-8" standalone="no"?>
<svg
   width="32"
   height="32"
   version="1.1"
   viewBox="0 0 32 32"
   xml:space="preserve"
   id="svg4"
   sodipodi:docname="sync.svg"
   inkscape:version="1.3.2 (091e20e, 2023-11-25)"
   xmlns:inkscape="http://www.inkscape.org/namespaces/inkscape"
   xmlns:sodipodi="http://sodipodi.sourceforge.net/DTD/sodipodi-0.dtd"
   xmlns="http://www.w3.org/2000/svg"
   xmlns:svg="http://www.w3.org/2000/svg"><defs
     id="defs4" /><sodipodi:namedview
     id="namedview4"
     pagecolor="#ffffff"
     bordercolor="#000000"
     borderopacity="0.25"
     inkscape:showpageshadow="2"
     inkscape:pageopacity="0.0"
     inkscape:pagecheckerboard="0"
     inkscape:deskcolor="#d1d1d1"
     showguides="true"
     inkscape:zoom="5.2661727"
     inkscape:cx="-8.8299421"
     inkscape:cy="16.330646"
     inkscape:window-width="2528"
     inkscape:window-height="1359"
     inkscape:window-x="45"
     inkscape:window-y="25"
     inkscape:window-maximized="0"
     inkscape:current-layer="svg4" /><rect
     x=".4923"
     y=".4923"
     width="31.02"
     height="31.02"
     ry="4.258"
     fill="#643893"
     stroke="#371a4a"
     stroke-width=".9846"
     id="rect1" /><g
     style="fill:#ffffff"
     id="g9"
     transform="matrix(0.025,0,0,0.025,4.0023002,28)"><path
       d="m 230,-477.23 q 0,46.88 17.75,91.15 17.74,44.27 55.33,81.77 l 25.38,25.39 v -79.54 q 0,-12.75 8.63,-21.38 8.63,-8.62 21.38,-8.62 12.76,0 21.38,8.62 8.61,8.63 8.61,21.38 v 149.23 q 0,15.36 -10.39,25.76 -10.4,10.39 -25.76,10.39 H 203.08 q -12.75,0 -21.38,-8.63 -8.62,-8.63 -8.62,-21.38 0,-12.76 8.62,-21.37 8.63,-8.62 21.38,-8.62 H 290 l -29.08,-27.84 q -49.3,-45.62 -70.11,-102.2 Q 170,-419.69 170,-477.23 q 0,-90.54 46.46,-164.92 46.46,-74.39 124.77,-114.62 10.92,-6.08 22.96,-1.38 12.04,4.69 15.89,16.72 3.84,11.28 -0.47,22.78 -4.32,11.51 -15.3,17.65 -61.46,33.15 -97.89,92.65 Q 230,-548.84 230,-477.23 Z m 500,-5.54 q 0,-46.88 -17.75,-91.15 -17.74,-44.27 -55.33,-81.77 l -25.38,-25.39 v 79.54 q 0,12.75 -8.63,21.38 -8.63,8.62 -21.38,8.62 -12.76,0 -21.38,-8.62 -8.61,-8.63 -8.61,-21.38 v -149.23 q 0,-15.36 10.39,-25.76 10.4,-10.39 25.76,-10.39 h 149.23 q 12.75,0 21.38,8.63 8.62,8.63 8.62,21.38 0,12.76 -8.62,21.37 -8.63,8.62 -21.38,8.62 H 670 l 29.08,27.84 q 47.39,47.39 69.16,103.01 21.76,55.61 21.76,113.36 0,90.48 -46.27,164.67 -46.27,74.19 -124.58,114.42 -10.92,6.08 -22.96,1.58 -12.04,-4.5 -15.88,-16.53 -3.85,-11.28 0.5,-22.81 4.34,-11.54 14.88,-17.62 61.46,-33.15 97.89,-92.65 Q 730,-411.16 730,-482.77 Z"
       id="path1" /></g></svg>
