<?xml version="1.0" encoding="UTF-8" standalone="no"?>
<svg
   width="32"
   height="32"
   version="1.1"
   viewBox="0 0 32 32"
   xml:space="preserve"
   id="svg4"
   sodipodi:docname="tidy-links.svg"
   inkscape:version="1.3.2 (091e20e, 2023-11-25)"
   xmlns:inkscape="http://www.inkscape.org/namespaces/inkscape"
   xmlns:sodipodi="http://sodipodi.sourceforge.net/DTD/sodipodi-0.dtd"
   xmlns="http://www.w3.org/2000/svg"
   xmlns:svg="http://www.w3.org/2000/svg"><defs
     id="defs4" /><sodipodi:namedview
     id="namedview4"
     pagecolor="#ffffff"
     bordercolor="#000000"
     borderopacity="0.25"
     inkscape:showpageshadow="2"
     inkscape:pageopacity="0.0"
     inkscape:pagecheckerboard="0"
     inkscape:deskcolor="#d1d1d1"
     inkscape:zoom="26.6875"
     inkscape:cx="15.981265"
     inkscape:cy="16"
     inkscape:window-width="2528"
     inkscape:window-height="1359"
     inkscape:window-x="45"
     inkscape:window-y="25"
     inkscape:window-maximized="0"
     inkscape:current-layer="svg4" /><rect
     x=".4923"
     y=".4923"
     width="31.02"
     height="31.02"
     ry="4.258"
     fill="#643893"
     stroke="#371a4a"
     stroke-width=".9846"
     id="rect1" /><g
     fill="#fff"
     id="g4"><path
       d="m16 7.702c-0.1538 0-0.3003 0.03571-0.4395 0.1094-0.139 0.07367-0.255 0.1878-0.3477 0.3418l-8.561 14.79c-0.0925 0.154-0.1348 0.3098-0.127 0.4668 0.0078 0.157 0.05091 0.3028 0.1289 0.4375 0.07483 0.1357 0.1795 0.2433 0.3145 0.3262 0.135 0.08283 0.2875 0.125 0.457 0.125h17.15c0.1695 0 0.322-0.04217 0.457-0.125s0.2396-0.1905 0.3145-0.3262c0.078-0.1347 0.1211-0.2805 0.1289-0.4375 0.0078-0.157-0.03445-0.3128-0.127-0.4668l-8.561-14.79c-0.09267-0.154-0.2087-0.2681-0.3477-0.3418-0.1392-0.07367-0.2856-0.1094-0.4395-0.1094zm-0.5 2.957v4.912l-5.793 5.062zm1 0 5.961 10.26-5.961-5.346zm-1 6.24v2.512l-5.484 2.279zm1 0.01953 5.404 4.848-5.404-2.35zm-0.5039 3.369 5.771 2.51h-11.81z"
       stroke-width=".025"
       id="path4" /></g></svg>
